{
	"asset":{
		"generator":"Khronos glTF Blender I/O v4.1.63",
		"version":"2.0"
	},
	"scene":0,
	"scenes":[
		{
			"name":"Scene",
			"nodes":[
				0
			]
		}
	],
	"nodes":[
		{
			"mesh":0,
			"name":"Azadi-Tower-Iran-MiniWorld3D",
			"translation":[
				44.5,
				0,
				50
			]
		}
	],
	"meshes":[
		{
			"name":"Azadi-Tower-Iran-MiniWorld3D",
			"primitives":[
				{
					"attributes":{
						"POSITION":0,
						"NORMAL":1
					},
					"indices":2
				}
			]
		}
	],
	"accessors":[
		{
			"bufferView":0,
			"componentType":5126,
			"count":28169,
			"max":[
				4.300000190734863,
				53.599998474121094,
				-8.899999618530273
			],
			"min":[
				-94.30000305175781,
				-0.800000011920929,
				-94.4000015258789
			],
			"type":"VEC3"
		},
		{
			"bufferView":1,
			"componentType":5126,
			"count":28169,
			"type":"VEC3"
		},
		{
			"bufferView":2,
			"componentType":5123,
			"count":37827,
			"type":"SCALAR"
		}
	],
	"bufferViews":[
		{
			"buffer":0,
			"byteLength":338028,
			"byteOffset":0,
			"target":34962
		},
		{
			"buffer":0,
			"byteLength":338028,
			"byteOffset":338028,
			"target":34962
		},
		{
			"buffer":0,
			"byteLength":75654,
			"byteOffset":676056,
			"target":34963
		}
	],
	"buffers":[
		{
			"byteLength":751712,
			"uri":"Azadi.bin"
		}
	]
}
